<svg xmlns="http://www.w3.org/2000/svg" width="480" height="360" version="1.1" viewBox="0 0 480 360"><rect width="480" height="360" x="0" y="0" fill="none"/><g transform="translate(0, 0)"><rect width="420" height="150" x="10" y="10" fill="silver" stroke="#000"/><text x="220" y="35" fill="#000" dominant-baseline="text-after-edge" font-family="Ubuntu" font-size="18" text-anchor="middle">Debian package A</text><rect width="160" height="95" x="20" y="52" fill="none" stroke="#000" stroke-dasharray="3 2"/><text x="100" y="107" fill="#000" dominant-baseline="text-after-edge" font-family="Ubuntu" font-size="15" text-anchor="middle">A_slice1</text><rect width="160" height="95" x="150" y="45" fill="none" stroke="#000" stroke-dasharray="3 2"/><text x="230" y="100" fill="#000" dominant-baseline="text-after-edge" font-family="Ubuntu" font-size="15" text-anchor="middle">A_slice2</text><rect width="90" height="95" x="320" y="45" fill="none" stroke="#505050" stroke-dasharray="3 2"/><text x="365" y="100" fill="#505050" dominant-baseline="text-after-edge" font-family="Ubuntu" font-size="15" text-anchor="middle">A_slice3</text></g><g transform="translate(40, 220)"><rect width="380" height="120" x="10" y="10" fill="silver" stroke="#000"/><text x="200" y="125" fill="#000" dominant-baseline="text-after-edge" font-family="Ubuntu" font-size="18" text-anchor="middle">Debian package B</text><rect width="140" height="75" x="20" y="20" fill="none" stroke="#000" stroke-dasharray="3 2"/><text x="90" y="65" fill="#000" dominant-baseline="text-after-edge" font-family="Ubuntu" font-size="15" text-anchor="middle">B_slice1</text><rect width="210" height="75" x="170" y="20" fill="none" stroke="#000" stroke-dasharray="3 2"/><text x="275" y="65" fill="#000" dominant-baseline="text-after-edge" font-family="Ubuntu" font-size="15" text-anchor="middle">B_slice2</text><path fill="none" stroke="#000" stroke-dasharray="3 2" d="M 60,20 l 0,-85"/><path fill="none" stroke="#000" d="M 60,-73 l 4,8 -8,0 z"/><path fill="none" stroke="#000" stroke-dasharray="3 2" d="M 190,20 c 0,-73 -110,-20 -110,-85"/><path fill="none" stroke="#000" d="M 80,-73 l 4,8 -8,0 z"/><path fill="none" stroke="#000" stroke-dasharray="3 2" d="M 230,20 l 0,-92"/><path fill="none" stroke="#000" d="M 230,-80 l 4,8 -8,0 z"/><path fill="none" stroke="#000" d="M 390,35 c 50,-20 60,-75 7,-105"/><path fill="none" stroke="#000" d="M 397,-70 l 2,-3 -8,-1 4,7 z"/></g></svg>